<svg version="1.1" xmlns="http://www.w3.org/2000/svg" xmlns:xlink="http://www.w3.org/1999/xlink">
    <defs>
        <symbol id="icon-chevron-left" viewBox="0 0 24 24">
            <title>chevron-left</title>
            <path
                d="M18.355 21.074l-9.074-9.074 9.074-9.074c0.67-0.67 0.67-1.755 0-2.424s-1.755-0.67-2.424 0l-10.286 10.286c-0.67 0.67-0.67 1.755 0 2.424l10.286 10.286c0.67 0.67 1.755 0.67 2.424 0s0.67-1.755 0-2.424z">
            </path>
        </symbol>
        <symbol id="icon-chevron-right" viewBox="0 0 24 24">
            <title>chevron-right</title>
            <path
                d="M8.069 23.498l10.286-10.286c0.67-0.67 0.67-1.755 0-2.424l-10.286-10.286c-0.67-0.67-1.755-0.67-2.424 0s-0.67 1.755 0 2.424l9.074 9.074-9.074 9.074c-0.67 0.67-0.67 1.755 0 2.424s1.755 0.67 2.424 0z">
            </path>
        </symbol>
        <symbol id="icon-doc" viewBox="0 0 24 24">
            <title>doc</title>
            <path fill="none" stroke="#1a1a18" style="stroke: var(--color1, #1a1a18)" stroke-linejoin="round"
                stroke-linecap="round" stroke-miterlimit="22.9256" stroke-width="0.8"
                d="M19.252 2.4h-9.67l-4.835 4.835v14.365h14.505z"></path>
            <path fill="none" stroke="#1a1a18" style="stroke: var(--color1, #1a1a18)" stroke-linejoin="miter"
                stroke-linecap="butt" stroke-miterlimit="22.9256" stroke-width="0.8" d="M9.582 2.4v4.94h-4.835"></path>
            <path
                d="M12.017 6.429h4.696c0.318 0 0.578 0.26 0.578 0.578v0c0 0.318-0.26 0.578-0.578 0.578h-4.696c-0.318 0-0.577-0.26-0.577-0.578v-0c0-0.318 0.26-0.578 0.577-0.578z">
            </path>
            <path
                d="M7.673 8.952h9.040c0.318 0 0.578 0.26 0.578 0.578v0c0 0.318-0.26 0.578-0.578 0.578h-9.040c-0.318 0-0.578-0.26-0.578-0.578v-0c0-0.318 0.26-0.578 0.578-0.578z">
            </path>
            <path
                d="M7.673 11.614h9.040c0.318 0 0.578 0.26 0.578 0.578v0c0 0.318-0.26 0.578-0.578 0.578h-9.040c-0.318 0-0.578-0.26-0.578-0.578v-0c0-0.318 0.26-0.578 0.578-0.578z">
            </path>
            <path
                d="M7.673 14.242h9.040c0.318 0 0.578 0.26 0.578 0.578v0c0 0.318-0.26 0.578-0.578 0.578h-9.040c-0.318 0-0.578-0.26-0.578-0.578v-0c0-0.318 0.26-0.578 0.578-0.578z">
            </path>
            <path
                d="M7.673 16.765h9.040c0.318 0 0.578 0.26 0.578 0.578v0c0 0.318-0.26 0.578-0.578 0.578h-9.040c-0.318 0-0.578-0.26-0.578-0.578v-0c0-0.318 0.26-0.578 0.578-0.578z">
            </path>
        </symbol>
        <symbol id="icon-edit" viewBox="0 0 24 24">
            <title>edit</title>
            <path
                d="M14.924 4.044l4.882 4.882-12.358 12.358-4.879-4.882 12.355-12.358zM23.511 2.867l-2.177-2.177c-0.841-0.841-2.208-0.841-3.052 0l-2.086 2.086 4.882 4.882 2.433-2.433c0.653-0.653 0.653-1.705 0-2.358zM0.014 23.264c-0.089 0.4 0.272 0.758 0.672 0.661l5.44-1.319-4.879-4.882-1.233 5.54z">
            </path>
        </symbol>
        <symbol id="icon-trash" viewBox="0 0 24 24">
            <title>trash</title>
            <path
                d="M5.642 22.371c0 0 0.357 1.629 2.198 1.629h8.32c1.84 0 2.197-1.629 2.197-1.629l1.643-15.971h-16l1.642 15.971zM15.2 8.8c0-0.442 0.358-0.8 0.8-0.8s0.8 0.358 0.8 0.8l-0.8 12c0 0.442-0.358 0.8-0.8 0.8s-0.8-0.358-0.8-0.8l0.8-12zM11.2 8.8c0-0.442 0.358-0.8 0.8-0.8s0.8 0.358 0.8 0.8v12c0 0.442-0.358 0.8-0.8 0.8s-0.8-0.358-0.8-0.8v-12zM8 8c0.442 0 0.8 0.358 0.8 0.8l0.8 12c0 0.442-0.358 0.8-0.8 0.8s-0.8-0.358-0.8-0.8l-0.8-12c0-0.442 0.358-0.8 0.8-0.8zM19.52 3.201h-3.52v-1.601c0-1.214-0.393-1.6-1.6-1.6h-4.8c-1.107 0-1.6 0.536-1.6 1.6v1.601h-3.52c-0.707 0-1.28 0.537-1.28 1.201s0.573 1.201 1.28 1.201h15.040c0.707 0 1.28-0.537 1.28-1.201s-0.573-1.201-1.28-1.201zM14.4 3.201h-4.8l0-1.601h4.8v1.601z">
            </path>
        </symbol>
        <symbol id="icon-doc-aircraft" viewBox="0 0 24 24">
            <title>doc-airplane</title>
            <path style="fill: none; stroke: var(--main-color)" stroke-linejoin="round" stroke-linecap="round"
                stroke-miterlimit="22.9256" stroke-width="0.8" d="M19.252 2.4h-9.67l-4.835 4.835v14.365h14.505z"></path>
            <path style="fill: none; stroke: var(--main-color)" stroke-linejoin="miter" stroke-linecap="butt"
                stroke-miterlimit="22.9256" stroke-width="0.8" d="M9.582 2.4v4.94h-4.835"></path>
            <path
                d="M12 17.618l1.426 0.548v-0.487l-1.009-0.817v-0.748l0.359-0.4v-1.45l3.14 0.841v-0.921l-3.134-1.809v-2l-0.783-1.009-0.782 1.009v2l-3.134 1.809v0.921l3.14-0.841v1.45l0.359 0.4v0.748l-1.009 0.817v0.487z">
            </path>
        </symbol>
        <symbol id="icon-calendar" viewBox="0 0 24 24">
            <title>calendar</title>
            <path
                d="M23.489 2.854c-0.339-0.347-0.759-0.525-1.255-0.525h-5.197v-0.993c0-0.453-0.35-0.803-0.803-0.803s-0.803 0.35-0.803 0.803v0.993h-6.847v-0.993c0-0.453-0.365-0.803-0.818-0.803s-0.803 0.35-0.803 0.803v0.993h-5.197c-0.482 0-0.909 0.172-1.255 0.525-0.339 0.347-0.511 0.759-0.511 1.241v17.606c0 0.482 0.172 0.894 0.511 1.241 0.347 0.354 0.774 0.525 1.255 0.525h20.467c0.496 0 0.923-0.172 1.255-0.511 0.339-0.347 0.511-0.774 0.511-1.255v-17.606c0-0.482-0.179-0.902-0.511-1.241zM22.394 21.701c0 0.058-0.088 0.146-0.161 0.146h-20.467c-0.073 0-0.16-0.088-0.16-0.146v-11.869h20.788v11.869zM22.394 8.226h-20.788v-4.131c0-0.102 0.058-0.146 0.16-0.146h5.197v0.35c0 0.453 0.35 0.818 0.803 0.818s0.818-0.365 0.818-0.818v-0.35h6.847v0.35c0 0.453 0.35 0.818 0.803 0.818s0.803-0.365 0.803-0.818v-0.35h5.197c0.102 0 0.161 0.044 0.161 0.146v4.131z">
            </path>
            <path
                d="M8.613 14.62h9.679c0.453 0 0.803-0.365 0.803-0.818s-0.35-0.803-0.803-0.803h-9.679c-0.453 0-0.818 0.35-0.818 0.803s0.365 0.818 0.818 0.818z">
            </path>
            <path
                d="M8.613 18.504h9.679c0.453 0 0.803-0.35 0.803-0.803s-0.35-0.818-0.803-0.818h-9.679c-0.453 0-0.818 0.365-0.818 0.818s0.365 0.803 0.818 0.803z">
            </path>
            <path d="M4.905 13h1.606v1.62h-1.606v-1.62z"></path>
            <path d="M4.905 16.883h1.606v1.62h-1.606v-1.62z"></path>
        </symbol>
        <symbol id="icon-menu-dots" viewBox="0 0 512 512">
            <title>Menu</title>
            <g>
                <circle cx="256" cy="256" r="64" />
                <circle cx="256" cy="448" r="64" />
                <circle cx="256" cy="64" r="64" />
            </g>
        </symbol>
        <symbol id="icon-clock" viewBox="0 0 24 24">
            <title>clock</title>
            <path
                d="M23.042 7.329c-1.265-2.95-3.416-5.095-6.39-6.364-1.487-0.634-3.044-0.958-4.672-0.958s-3.173 0.321-4.658 0.958c-2.95 1.265-5.11 3.409-6.377 6.364-0.635 1.48-0.945 3.031-0.945 4.658s0.31 3.191 0.945 4.672c1.268 2.955 3.428 5.112 6.377 6.377 1.485 0.637 3.031 0.958 4.658 0.958s3.185-0.324 4.671-0.958c2.975-1.269 5.125-3.428 6.39-6.377 0.637-1.485 0.958-3.044 0.958-4.672s-0.321-3.173-0.958-4.658zM21.126 17.288c-0.942 1.616-2.233 2.897-3.858 3.845-1.615 0.942-3.386 1.417-5.288 1.417-1.43 0-2.795-0.275-4.094-0.84s-2.421-1.306-3.359-2.244c-0.938-0.938-1.685-2.071-2.244-3.372-0.557-1.297-0.827-2.677-0.827-4.107 0-1.903 0.467-3.664 1.404-5.275 0.94-1.617 2.231-2.9 3.845-3.845s3.372-1.417 5.275-1.417c1.903 0 3.673 0.475 5.288 1.417 1.625 0.948 2.913 2.231 3.858 3.845s1.417 3.372 1.417 5.275c0 1.903-0.469 3.676-1.417 5.302z">
            </path>
            <path
                d="M12.741 11.882v-6.797c0-0.407-0.354-0.735-0.761-0.735-0.38 0-0.722 0.328-0.722 0.735v6.902c0 0.013 0.026 0.066 0.026 0.105-0.026 0.236 0.039 0.433 0.197 0.591l3.924 3.923c0.263 0.263 0.748 0.263 1.010 0 0.302-0.302 0.282-0.74 0-1.023l-3.674-3.701z">
            </path>
        </symbol>
        <symbol id="icon-mail" viewBox="0 0 24 24">
            <title>mail</title>
            <path
                d="M20.511 3.43h-17.018c-1.519 0-2.754 1.235-2.754 2.754v11.631c0 1.519 1.235 2.754 2.754 2.754h17.014c1.519 0 2.754-1.235 2.754-2.754v-11.627c0.005-1.519-1.23-2.759-2.749-2.759zM22.007 17.816c0 0.825-0.671 1.496-1.496 1.496h-17.018c-0.825 0-1.496-0.671-1.496-1.496v-11.627c0-0.825 0.671-1.496 1.496-1.496h17.014c0.825 0 1.496 0.671 1.496 1.496v11.627h0.005z">
            </path>
            <path
                d="M14.943 11.856l5.508-4.94c0.256-0.233 0.28-0.629 0.047-0.89-0.233-0.256-0.629-0.28-0.89-0.047l-7.596 6.818-1.482-1.323c-0.005-0.005-0.009-0.009-0.009-0.014-0.033-0.033-0.065-0.061-0.102-0.089l-6.030-5.396c-0.261-0.233-0.657-0.21-0.89 0.051s-0.21 0.657 0.051 0.89l5.573 4.982-5.55 5.196c-0.252 0.238-0.266 0.634-0.028 0.89 0.126 0.13 0.294 0.2 0.461 0.2 0.154 0 0.308-0.056 0.429-0.168l5.634-5.27 1.528 1.365c0.121 0.107 0.27 0.158 0.419 0.158s0.303-0.056 0.419-0.163l1.57-1.407 5.601 5.322c0.121 0.116 0.28 0.172 0.433 0.172 0.168 0 0.331-0.065 0.457-0.196 0.238-0.252 0.228-0.652-0.023-0.89l-5.531-5.252z">
            </path>
        </symbol>
        <symbol id="icon-phone" viewBox="0 0 20 20">
            <title>phone</title>
            <path
                d="M17.256 12.253c-0.096-0.667-0.611-1.187-1.274-1.342-2.577-0.604-3.223-2.088-3.332-3.734-0.457-0.085-1.27-0.177-2.65-0.177s-2.193 0.092-2.65 0.177c-0.109 1.646-0.755 3.13-3.332 3.734-0.663 0.156-1.178 0.675-1.274 1.342l-0.497 3.442c-0.175 1.212 0.715 2.305 1.953 2.305h11.6c1.237 0 2.128-1.093 1.953-2.305l-0.497-3.442zM10 15.492c-1.395 0-2.526-1.12-2.526-2.5s1.131-2.5 2.526-2.5 2.526 1.12 2.526 2.5-1.132 2.5-2.526 2.5zM19.95 6c-0.024-1.5-3.842-3.999-9.95-4-6.109 0.001-9.927 2.5-9.95 4s0.021 3.452 2.535 3.127c2.941-0.381 2.76-1.408 2.76-2.876 0-1.024 2.392-1.271 4.655-1.271s4.654 0.247 4.655 1.271c0 1.468-0.181 2.495 2.76 2.876 2.513 0.325 2.558-1.627 2.535-3.127z">
            </path>
        </symbol>
        <symbol id="icon-aircraft-opaque" viewBox="0 0 72 72">
            <path
                d="M6.576,36l-4.188,10.894l3.721,0l6.243,-7.706l5.713,0l3.056,2.743l11.077,0l-6.427,23.985l7.037,0l13.821,-23.938l15.278,0l7.705,-5.978l-7.705,-5.978l-15.278,0l-13.821,-23.938l-7.037,0l6.427,23.986l-11.077,0l-3.056,2.742l-5.713,0l-6.243,-7.706l-3.721,0l4.188,10.894Z"
                style="stroke-width:2px;" />
        </symbol>
        <symbol id="icon-ap-from" viewBox="0 0 24 24">
            <title>ap-from</title>
            <path
                d="M5.654 17.875c6.21-3.597 11.444-6.635 17.655-10.229 1.343-0.777 0.649-2.898-1.408-1.924l-7.238 3.424-8.445-1.783-1.83 1.454 5.396 3.332-4.411 2.534-4.364-1.22-1.009 0.775 5.654 3.636z">
            </path>
            <path d="M0.662 19.939h24v2.152h-24v-2.152z"></path>
        </symbol>
        <symbol id="icon-offline" viewBox="0 0 40 32">
            <title>connection</title>
            <path
                d="M17.929 28.122c0-1.116 0.905-2.020 2.020-2.020s2.020 0.905 2.020 2.020c0 1.116-0.905 2.020-2.020 2.020s-2.020-0.905-2.020-2.020zM30.769 4.002l3.355-3.355c0.369-0.369 0.968-0.369 1.337 0l1.337 1.337c0.369 0.369 0.369 0.968 0 1.337l-25.492 25.492c-0.369 0.369-0.968 0.369-1.337 0l-1.337-1.337c-0.369-0.369-0.369-0.968 0-1.337l3.657-3.657-0.907-0.907c1.321-1.321 2.943-2.339 4.755-2.94l4.634-4.634c-0.273-0.014-0.547-0.020-0.822-0.020-4.317 0-8.376 1.681-11.429 4.734l-2.857-2.857c3.816-3.816 8.889-5.917 14.286-5.917 1.5 0 2.974 0.162 4.404 0.479l3.282-3.282c-2.445-0.814-5.033-1.238-7.686-1.238-6.476 0-12.564 2.522-17.143 7.101l-2.857-2.857c2.597-2.597 5.622-4.636 8.99-6.061 3.488-1.475 7.193-2.224 11.010-2.224 3.748 0 7.387 0.721 10.82 2.144zM24.639 18.964c1.46 0.615 2.774 1.507 3.878 2.611l-2.856 2.856c-1.136-1.136-2.607-1.936-4.251-2.237l3.229-3.229zM30.623 12.98c1.295 0.809 2.506 1.771 3.612 2.877l-2.857 2.857c-1.114-1.114-2.363-2.046-3.709-2.78l2.954-2.954zM36.443 7.16c1.24 0.892 2.411 1.888 3.506 2.983l-2.857 2.857c-1.101-1.101-2.289-2.083-3.549-2.94l2.9-2.9z">
            </path>
        </symbol>
        <symbol id="icon-bin" viewBox="0 0 32 32">
            <title>bin2</title>
            <path d="M6 32h20l2-22h-24l2 22zM20 4v-4h-8v4h-10v4.688h28v-4.688h-10zM18 4h-4v-2h4v2z"></path>
        </symbol>
        <symbol id="icon-update-loop" viewBox="0 0 32 32">
            <title>loop2</title>
            <path
                d="M4.197 26.802c2.925 3.194 7.13 5.198 11.803 5.198 8.837 0 16-7.163 16-16h-3c0 7.18-5.82 13-13 13-3.844 0-7.298-1.669-9.678-4.322l4.678-4.678h-11v11l4.197-4.197z">
            </path>
            <path
                d="M3 16c0-7.18 5.82-13 13-13 3.844 0 7.298 1.669 9.678 4.322l-4.678 4.678h11v-11l-4.197 4.197c-2.925-3.194-7.13-5.197-11.803-5.197-8.837 0-16 7.163-16 16h3z">
            </path>
        </symbol>
        <symbol id="icon-drafts" viewBox="0 0 36 36">
            <style type="text/css">
                .line { stroke: var(--main-color, #000); stroke-width: 2; }
            </style>
            <g>
                <line class="line" x1="8.77548" y1="9.24806" x2="18.903" y2="9.24806" />
                <line class="line" x1="8.77548" y1="24.82253" x2="18.903" y2="24.82253" />
                <line class="line" x1="8.77548" y1="15.37578" x2="14.4214" y2="15.37578" />
                <polygon points="17.70574,20.62686 18.11375,15.58001 28.70858,2.11413 33,5.28648 22.87951,18.72117" />
                <path d="M6.8979,2.26346h19.07929l-2.22982,2.72919H7.4469c-1.15905,0-2.10772,0.94867-2.10772,2.10772
      v21.94902c0,1.15905,0.94867,2.10772,2.10772,2.10772h18.20528c1.16037,0,2.10904-0.94867,2.10904-2.10772V15.78424
      l2.33918-3.46485v17.66858c0,2.14374-1.75417,3.8979-3.8979,3.8979H6.8979C4.75285,33.88587,3,32.13302,3,29.98797V6.16268
      C3,4.01675,4.75285,2.26346,6.8979,2.26346z" />
            </g>
        </symbol>
        <symbol id="icon-history" viewBox="0 0 36 36">
            <path
                d="M8.62367,23.81099l5.84069-5.80722l-4.23523-0.01765c0-3.02885,1.07288-5.18821,3.06342-7.18059
      c1.74191-1.74191,4.27974-2.79492,6.84552-2.79492c0.79629,0,1.52638,0.12505,2.1601,0.25121
      c0.72457,0.14381,1.28436,0.37111,1.86733,0.60981c3.31536,1.35866,5.94919,5.11796,5.94919,8.77979
      c0,3.05569-0.95408,5.39528-2.99648,7.44908c-3.37605,3.39481-8.61391,3.74826-12.61743,1.06773
      c-0.53809-0.35971-1.15637-0.99343-1.39176-1.15085l-2.06042,2.02364c0.59841,0.91105,2.45029,2.01923,3.51067,2.55107
      c4.82482,2.41352,10.92297,1.29687,14.66792-2.44992c2.06447-2.06447,3.76592-5.26618,3.76592-8.28473
      c0-1.84305,0.096-2.54261-0.42849-4.39229c-1.02506-3.6074-3.50515-6.4722-6.86759-8.13025
      c-2.20092-1.08318-3.85346-1.20308-6.29492-1.20308c-2.17407,0-5.02343,1.06552-6.78116,2.39071
      c-0.28358,0.21369-0.62673,0.43584-0.86948,0.67161c-0.28689,0.27916-0.53074,0.45129-0.80291,0.73597l-1.04457,1.23214
      c-0.56421,0.74995-1.04897,1.53594-1.4598,2.42418c-0.58775,1.26671-1.16042,3.18185-1.16042,4.99805v0.40164H2.99999" />
            <path d="M18.7327,19.32566c0,0.19824,0.14381,0.23466,0.28541,0.31815
      c0.75914,0.43989,5.60419,3.36833,5.87305,3.43122c0.2045-0.38398,0.94672-1.55359,1.0052-1.80811
      c-0.64034-0.33875-1.81951-1.07288-2.48156-1.469c-0.21259-0.12726-2.3532-1.42633-2.53857-1.47709v-6.093h-2.14355v7.09783
      H18.7327z" />
        </symbol>
        <symbol id="icon-ap-to" viewBox="0 0 24 24">
            <title>ap-to</title>
            <path
                d="M2.678 7.615c6.006 3.455 11.074 6.365 17.077 9.825 1.298 0.748 2.736-0.856 0.929-2.106l-6.358-4.4-2.587-7.923-2.099-0.828-0.181 6.121-4.248-2.465-1.087-4.238-1.135-0.469-0.311 6.484z">
            </path>
            <path d="M1.882 19.84h20.085v2.17h-20.085v-2.17z"></path>
        </symbol>
        <symbol id="icon-airport" viewBox="0 0 24 24">
            <title>airport</title>
            <path
                d="M12.303,0.005C17.513,0.18 21.324,5.065 20.448,10.204C19.602,15.17 15.037,18.627 12.365,23.782C12.269,23.968 12.062,24.034 11.887,23.982L11.886,14.264L13.631,14.935L13.631,14.34L12.397,13.34L12.397,12.425L12.836,11.936L12.836,10.162L16.676,11.191L16.676,10.064L12.843,7.851L12.843,5.405L11.886,4.171L11.886,0C12.024,-0.002 12.162,-0.001 12.302,0.004L12.303,0.005ZM11.886,0C7.202,0.064 3.426,3.88 3.426,8.579C3.426,14.068 8.694,18.052 11.647,23.781C11.701,23.886 11.789,23.953 11.887,23.982L11.886,14.264L10.143,14.934L10.143,14.339L11.377,13.339L11.377,12.424L10.938,11.935L10.938,10.161L7.098,11.19L7.098,10.063L10.931,7.85L10.931,5.404L11.886,4.171L11.886,0Z">
            </path>
        </symbol>
        <symbol id="icon-logout" viewBox="0 0 24 24">
            <title>logout</title>
            <path
                d="M10.378 0.534c5.929 0.070 11.265 5.414 11.195 11.384-0.076 6.554-6.688 12.262-13.509 10.918 0 0-0.6-0.136-0.697-0.585-0.113-0.526 0.091-0.997 1.234-0.787 5.635 0.962 11.604-3.835 11.524-9.808-0.073-5.478-5.375-10.341-11.148-9.584 0 0-0.562-0.015-0.748-0.406-0.338-0.709 0.724-1.133 2.149-1.132z">
            </path>
            <path
                d="M3.554 11.309c0.021-0.054 2.814-2.909 4.225-4.255 0.163-0.143 0.271-0.215 0.573-0.215 0.63 0.029 1.036 0.868 0.588 1.379-0.902 0.941-1.816 1.87-2.744 2.784 2.62-0.051 5.242-0.032 7.861 0.058 0.833 0.085 0.988 1.54 0 1.642-2.632 0.090-5.266 0.038-7.899 0.013 0.939 0.906 1.865 1.825 2.777 2.758 0.523 0.585-0.274 1.923-1.149 1.176-1.465-1.369-4.369-4.393-4.366-4.554-0.075-0.271-0.040-0.575 0.134-0.785z">
            </path>
        </symbol>
        <symbol id="icon-minus" viewBox="0 0 24 24">
            <title>minus</title>
            <path fill="#000" style="fill: var(--color2, #000)"
                d="M22.714 12c0 5.917-4.797 10.714-10.714 10.714s-10.714-4.797-10.714-10.714c0-5.917 4.797-10.714 10.714-10.714s10.714 4.797 10.714 10.714z">
            </path>
            <path fill="#fff" style="fill: var(--color3, #fff)" d="M5.813 11.156h12.375v1.688h-12.375v-1.688z"></path>
        </symbol>
        <symbol id="icon-new-request" viewBox="0 0 24 24">
            <title>new-request</title>
            <path style="fill: var(--main-color)"
                d="M22.714 12c0 5.917-4.797 10.714-10.714 10.714s-10.714-4.797-10.714-10.714c0-5.917 4.797-10.714 10.714-10.714s10.714 4.797 10.714 10.714z">
            </path>
            <path style="fill: var(--main-bg)"
                d="M12.777 8.111v3.135h2.918v1.458h-2.918v3.184h-1.554v-3.184h-2.919v-1.458h2.919v-3.135h1.554z"></path>
        </symbol>
        <symbol id="icon-notification" viewBox="0 0 24 24">
            <title>notification</title>
            <path
                d="M19.609 15.706c-0.613-1.022-0.94-2.193-0.94-3.387v-2.597c0-2.565-1.457-4.585-4.104-5.693-0.104-0.045-0.173-0.145-0.173-0.254v-0.826c0-1.303-1.049-2.392-2.333-2.42l-0.057-0.001v1.358h0.025c0.554 0.014 1.003 0.49 1.003 1.058v0.831c0 0.663 0.395 1.258 1.008 1.512 2.283 0.954 3.042 2.465 3.219 3.755h-5.255v1.362h5.305v1.235h-5.305v1.362h5.337c0.104 1.203 0.481 2.365 1.103 3.405l1.239 2.061h-7.679v1.362h1.128v1.458c0 0.622-0.504 1.126-1.122 1.126h-0.007v1.366h0.002c1.371 0 2.488-1.117 2.488-2.488v-1.457h5.616c0.309 0 0.59-0.113 0.804-0.327 0.359-0.359 0.427-0.917 0.168-1.353l-1.471-2.447zM12.002 0.528c-0.628 0.001-1.219 0.241-1.673 0.682-0.463 0.454-0.722 1.062-0.722 1.707v0.863c0 0.109-0.068 0.209-0.173 0.254-2.647 1.103-4.104 3.128-4.104 5.693v2.597c0 1.194-0.322 2.361-0.94 3.387l-1.462 2.433c-0.182 0.3-0.213 0.667-0.091 0.98 0.168 0.432 0.572 0.708 1.035 0.708h5.634v1.457c0 1.371 1.117 2.488 2.488 2.488h0.007v-1.366h-0.002c-0.617 0-1.126-0.504-1.126-1.126v-1.458h1.128v-1.362h-7.675l1.239-2.061c0.622-1.040 0.999-2.206 1.103-3.405h5.332v-1.362h-5.305v-1.235h5.305v-1.362h-5.264c0.291-2.088 1.875-3.187 3.228-3.75 0.613-0.254 1.008-0.849 1.008-1.512v-0.863c0-0.277 0.109-0.54 0.309-0.735 0.194-0.189 0.452-0.293 0.72-0.295v-1.358z">
            </path>
        </symbol>
        <symbol id="icon-password" viewBox="0 0 24 24">
            <title>password</title>
            <path
                d="M17.053 9.263v-3.957c0-2.693-2.361-4.885-5.263-4.885s-5.263 2.191-5.263 4.885v3.957h-3.789v14.316h18.526v-14.316h-4.211zM8.211 5.306c0-2.229 1.621-3.232 3.579-3.2 1.933 0.032 3.579 0.971 3.579 3.2v3.957h-7.158v-3.957zM4.421 21.895v-10.947h15.158v10.947h-15.158z">
            </path>
            <path
                d="M12 13.247c-1.585 0-2.105 1.176-2.105 2.105v2.526c0 0.929 0.621 2.105 2.105 2.105s2.105-1.176 2.105-2.105v-2.526c0-0.929-0.52-2.105-2.105-2.105zM12.842 17.878c0 0.464-0.378 0.842-0.842 0.842s-0.842-0.378-0.842-0.842v-2.526c0-0.464 0.378-0.842 0.842-0.842s0.842 0.378 0.842 0.842v2.526z">
            </path>
        </symbol>
        <symbol id="icon-plus" viewBox="0 0 24 24">
            <title>plus</title>
            <path fill="#000" style="fill: var(--color2, #000)"
                d="M22.714 12c0 5.917-4.797 10.714-10.714 10.714s-10.714-4.797-10.714-10.714c0-5.917 4.797-10.714 10.714-10.714s10.714 4.797 10.714 10.714z">
            </path>
            <path fill="#fff" style="fill: var(--color3, #fff)"
                d="M12.777 5.54v5.707h5.489v1.458h-5.489v5.756h-1.554v-5.756h-5.49v-1.458h5.49v-5.707h1.554z"></path>
        </symbol>
        <symbol id="icon-search" viewBox="0 0 24 24">
            <title>search</title>
            <path
                d="M9.6 17.991c2.047 0 3.907-0.726 5.358-1.953l6.512 6.512c0.149 0.149 0.335 0.223 0.54 0.223s0.391-0.074 0.54-0.223c0.298-0.298 0.298-0.781 0-1.079l-6.512-6.512c1.209-1.451 1.953-3.33 1.953-5.358 0-4.633-3.758-8.391-8.391-8.391-4.614 0-8.391 3.777-8.391 8.391 0 4.633 3.777 8.391 8.391 8.391zM9.6 2.735c3.795 0 6.865 3.088 6.865 6.865 0 3.795-3.070 6.865-6.865 6.865s-6.865-3.088-6.865-6.865c0-3.777 3.088-6.865 6.865-6.865z">
            </path>
        </symbol>
        <symbol id="icon-setting" viewBox="0 0 24 24">
            <title>setting</title>
            <path
                d="M12.228 0.311c0.701 0.010 1.703 0.139 1.703 0.139 0.25 0.086 0.258 0.108 0.342 0.335l0.636 2.133c0.551 0.161 1.686 0.679 1.686 0.679l2.070-1.103c0.522-0.164 0.596 0.153 0.814 0.321 0.77 0.602 1.466 1.297 2.069 2.066 0 0 0.272 0.277 0.102 0.627l-1.1 1.94c0.263 0.476 0.69 1.619 0.69 1.619l2.262 0.641c0.497 0.249 0.319 0.532 0.352 0.804 0.106 0.961 0.093 1.931-0.041 2.887 0 0-0.010 0.378-0.369 0.505l-2.203 0.62c-0.161 0.52-0.69 1.619-0.69 1.619l1.127 1.998c0.177 0.534-0.158 0.608-0.333 0.824-0.625 0.753-1.34 1.427-2.127 2.009 0 0-0.27 0.252-0.608 0.098l-2.015-1.077c-0.509 0.266-1.686 0.679-1.686 0.679l-0.658 2.191c-0.256 0.493-0.539 0.312-0.816 0.344-0.986 0.103-1.981 0.090-2.962-0.040 0 0-0.379-0.006-0.51-0.362l-0.636-2.133c-0.551-0.161-1.686-0.679-1.686-0.679l-2.070 1.103c-0.522 0.165-0.596-0.153-0.814-0.32-0.77-0.603-1.466-1.297-2.069-2.066 0 0-0.272-0.278-0.102-0.628l1.1-1.94c-0.263-0.475-0.69-1.619-0.69-1.619l-2.262-0.64c-0.497-0.25-0.319-0.533-0.352-0.804-0.106-0.961-0.093-1.931 0.041-2.887 0 0 0.010-0.379 0.369-0.505l2.203-0.621c0.161-0.519 0.69-1.619 0.69-1.619l-1.127-1.997c-0.177-0.534 0.158-0.608 0.333-0.824 0.625-0.753 1.34-1.428 2.127-2.009 0 0 0.27-0.253 0.608-0.099l2.015 1.078c0.509-0.267 1.686-0.679 1.686-0.679l0.658-2.192c0.256-0.492 0.539-0.312 0.816-0.344 0.474-0.049 0.95-0.073 1.428-0.071zM16.714 18.957c0.058 0.018 0.058 0.018 0.113 0.043l1.973 1.055c0.873-0.671 1.831-1.774 1.831-1.774l-1.075-1.896c-0.18-0.371-0.080-0.322 0.193-0.834 0.327-0.636 0.645-1.626 0.645-1.626 0.108-0.212 0.18-0.23 0.318-0.278l2.154-0.606c0.13-1.077 0-2.495 0-2.495l-2.154-0.606c-0.399-0.141-0.281-0.178-0.455-0.712-0.234-0.68-0.728-1.594-0.728-1.594-0.046-0.137-0.076-0.22 0.027-0.432l1.075-1.895c-0.704-0.866-1.831-1.774-1.831-1.774l-1.973 1.055c-0.384 0.175-0.327 0.062-0.824-0.188-0.66-0.32-1.679-0.629-1.679-0.629-0.126-0.062-0.203-0.099-0.283-0.314l-0.623-2.087c-1.128-0.128-2.603 0-2.603 0l-0.623 2.087c-0.148 0.4-0.185 0.28-0.73 0.447-0.696 0.226-1.642 0.707-1.642 0.707-0.221 0.071-0.289 0.032-0.413-0.024l-1.973-1.055c-0.873 0.67-1.831 1.774-1.831 1.774l1.075 1.895c0.252 0.52-0.513 1.359-0.818 2.401 0 0-0.060 0.238-0.339 0.337l-2.154 0.606c-0.13 1.076 0 2.495 0 2.495l2.154 0.606c0.535 0.188 0.614 1.307 1.155 2.248 0 0 0.134 0.217 0.002 0.489l-1.075 1.896c0.704 0.865 1.831 1.774 1.831 1.774l1.973-1.055c0.509-0.234 1.38 0.504 2.443 0.796 0 0 0.264 0.125 0.342 0.334l0.623 2.088c1.128 0.128 2.603 0 2.603 0l0.623-2.088c0.148-0.4 0.185-0.279 0.73-0.446 0.696-0.227 1.642-0.708 1.642-0.708 0.162-0.051 0.177-0.041 0.3-0.019z">
            </path>
            <path
                d="M12.118 6.636c-2.854 0-5.172 2.311-5.172 5.157 0 2.846 2.317 5.157 5.172 5.157s5.172-2.31 5.172-5.157c0-2.845-2.317-5.157-5.172-5.157zM12.118 7.556c2.339 0 4.238 1.899 4.238 4.237 0 2.339-1.899 4.238-4.238 4.238s-4.238-1.899-4.238-4.238c0-2.338 1.899-4.237 4.238-4.237z">
            </path>
        </symbol>
        <symbol id="icon-sipka" viewBox="0 0 24 24">
            <title>sipka</title>
            <path d="M22 9.667l-10 10-10-10z"></path>
        </symbol>
        <symbol id="icon-upcoming" viewBox="0 0 24 24">
            <title>upcoming_flights</title>
            <path
                d="M12 21.835l3.641 1.401v-1.244l-2.575-2.087v-1.91l0.917-1.021v-3.704l8.017 2.149v-2.353l-8.001-4.62v-5.107l-1.999-2.575-1.999 2.575v5.107l-8.001 4.62v2.353l8.018-2.149v3.704l0.916 1.021v1.91l-2.576 2.087v1.244l3.642-1.401z">
            </path>
        </symbol>
        <symbol id="icon-user" viewBox="0 0 24 24">
            <title>user</title>
            <path
                d="M9.048 13.308c-1.987-0.789-3.586-2.438-3.944-4.997-0.554-3.952 2.71-7.962 6.985-7.935 4.606 0.088 8.344 5.504 6.186 9.981-0.68 1.409-1.907 2.403-3.351 2.964 3.964 1.278 7.099 5.004 7.24 9.439l0.017 0.866h-20.363l0.017-0.866c0.136-4.294 3.083-8.157 7.213-9.452zM11.888 14.302c-4.235 0.080-8.091 3.464-8.56 7.833l17.347 0.039c-0.036-0.371-0.096-0.742-0.179-1.108-0.88-3.842-4.459-6.79-8.608-6.764zM11.929 1.828c-4.187 0.080-7.271 6.040-3.777 9.452 3.183 3.107 10.219 0.375 9.273-4.918-0.439-2.458-2.691-4.451-5.282-4.533-0.071-0.001-0.142-0.002-0.214-0.001z">
            </path>
        </symbol>
        <symbol id="icon-user-ws" viewBox="0 0 24 24">
            <path
                d="M20.954 21.988A3.463 3.463 0 0022 19.5c0-1.668-1.298-3.485-3.5-3.5-1.894-.013-3.5 1.568-3.5 3.5 0 .982.405 1.87 1.064 2.5.625.621 1.486 1 2.436 1s1.811-.379 2.436-1l.018-.012zm-6.197.007l.002.002-.002-.002zm.004.005H.954l.016-.834c.132-4.092 2.964-7.776 6.952-9.063v-.001C6.109 11.073 4.889 9.149 4.889 6.95 4.889 3.666 7.606 1 10.954 1c3.349 0 6.066 2.665 6.066 5.95 0 2.21-1.231 4.14-3.057 5.167 1.69.56 3.221 1.567 4.395 2.897L18.5 15c2.484 0 4.5 2.016 4.5 4.5S20.984 24 18.5 24a4.491 4.491 0 01-3.739-2z" />
            <path
                d="M18.146 21.924a.254.254 0 01-.117.066h-.001a.25.25 0 01-.235-.066l-1.768-1.768a.252.252 0 010-.354l.354-.353a.249.249 0 01.353 0l1.238 1.237 2.298-2.298a.25.25 0 01.353 0l.354.354a.25.25 0 010 .353l-2.829 2.829z" />
        </symbol>
        <symbol id="icon-user-fill" viewBox="0 0 24 24">
            <title>user-fill</title>
            <path
                d="M8 12.371a6.093 6.093 0 116.069.015c3.847 1.301 6.87 4.943 7.008 9.269l.016.854H1l.016-.854C1.149 17.464 3.994 13.69 8 12.372v-.001z" />
        </symbol>
        <symbol id="icon-eye" viewBox="0 0 511.626 511.626" style="enable-background:new 0 0 511.626 511.626;">
            <path d="M505.918,236.117c-26.651-43.587-62.485-78.609-107.497-105.065c-45.015-26.457-92.549-39.687-142.608-39.687
		c-50.059,0-97.595,13.225-142.61,39.687C68.187,157.508,32.355,192.53,5.708,236.117C1.903,242.778,0,249.345,0,255.818
		c0,6.473,1.903,13.04,5.708,19.699c26.647,43.589,62.479,78.614,107.495,105.064c45.015,26.46,92.551,39.68,142.61,39.68
		c50.06,0,97.594-13.176,142.608-39.536c45.012-26.361,80.852-61.432,107.497-105.208c3.806-6.659,5.708-13.223,5.708-19.699
		C511.626,249.345,509.724,242.778,505.918,236.117z M194.568,158.03c17.034-17.034,37.447-25.554,61.242-25.554
		c3.805,0,7.043,1.336,9.709,3.999c2.662,2.664,4,5.901,4,9.707c0,3.809-1.338,7.044-3.994,9.704
		c-2.662,2.667-5.902,3.999-9.708,3.999c-16.368,0-30.362,5.808-41.971,17.416c-11.613,11.615-17.416,25.603-17.416,41.971
		c0,3.811-1.336,7.044-3.999,9.71c-2.667,2.668-5.901,3.999-9.707,3.999c-3.809,0-7.044-1.334-9.71-3.999
		c-2.667-2.666-3.999-5.903-3.999-9.71C169.015,195.482,177.535,175.065,194.568,158.03z M379.867,349.04
		c-38.164,23.12-79.514,34.687-124.054,34.687c-44.539,0-85.889-11.56-124.051-34.687s-69.901-54.2-95.215-93.222
		c28.931-44.921,65.19-78.518,108.777-100.783c-11.61,19.792-17.417,41.207-17.417,64.236c0,35.216,12.517,65.329,37.544,90.362
		s55.151,37.544,90.362,37.544c35.214,0,65.329-12.518,90.362-37.544s37.545-55.146,37.545-90.362
		c0-23.029-5.808-44.447-17.419-64.236c43.585,22.265,79.846,55.865,108.776,100.783C449.767,294.84,418.031,325.913,379.867,349.04
		z" />
        </symbol>
        <symbol id="icon-eye-crossed" viewBox="0 0 511.626 511.627" style="enable-background:new 0 0 511.626 511.627;">
            <g>
                <g>
                    <path d="M361.161,291.652c15.037-21.796,22.56-45.922,22.56-72.375c0-7.422-0.76-15.417-2.286-23.984l-79.938,143.321
			C326.235,329.101,346.125,313.438,361.161,291.652z" />
                    <path d="M372.872,94.221c0.191-0.378,0.28-1.235,0.28-2.568c0-3.237-1.522-5.802-4.571-7.715c-0.568-0.38-2.423-1.475-5.568-3.287
			c-3.138-1.805-6.14-3.567-8.989-5.282c-2.854-1.713-5.989-3.472-9.422-5.28c-3.426-1.809-6.375-3.284-8.846-4.427
			c-2.479-1.141-4.189-1.713-5.141-1.713c-3.426,0-6.092,1.525-7.994,4.569l-15.413,27.696c-17.316-3.234-34.451-4.854-51.391-4.854
			c-51.201,0-98.404,12.946-141.613,38.831C70.998,156.08,34.836,191.385,5.711,236.114C1.903,242.019,0,248.586,0,255.819
			c0,7.231,1.903,13.801,5.711,19.698c16.748,26.073,36.592,49.396,59.528,69.949c22.936,20.561,48.011,37.018,75.229,49.396
			c-8.375,14.273-12.562,22.556-12.562,24.842c0,3.425,1.524,6.088,4.57,7.99c23.219,13.329,35.97,19.985,38.256,19.985
			c3.422,0,6.089-1.529,7.992-4.575l13.99-25.406c20.177-35.967,50.248-89.931,90.222-161.878
			C322.908,183.871,352.886,130.005,372.872,94.221z M158.456,362.885C108.97,340.616,68.33,304.93,36.547,255.822
			c28.931-44.921,65.19-78.518,108.777-100.783c-11.61,19.792-17.417,41.206-17.417,64.237c0,20.365,4.661,39.68,13.99,57.955
			c9.327,18.274,22.27,33.4,38.83,45.392L158.456,362.885z M265.525,155.887c-2.662,2.667-5.906,3.999-9.712,3.999
			c-16.368,0-30.361,5.808-41.971,17.416c-11.613,11.615-17.416,25.603-17.416,41.971c0,3.811-1.336,7.044-3.999,9.71
			c-2.668,2.667-5.902,3.999-9.707,3.999c-3.809,0-7.045-1.334-9.71-3.999c-2.667-2.666-3.999-5.903-3.999-9.71
			c0-23.79,8.52-44.206,25.553-61.242c17.034-17.034,37.447-25.553,61.241-25.553c3.806,0,7.043,1.336,9.713,3.999
			c2.662,2.664,3.996,5.901,3.996,9.707C269.515,149.992,268.181,153.228,265.525,155.887z" />
                    <path d="M505.916,236.114c-10.853-18.08-24.603-35.594-41.255-52.534c-16.646-16.939-34.022-31.496-52.105-43.68l-17.987,31.977
			c31.785,21.888,58.625,49.87,80.51,83.939c-23.024,35.782-51.723,65-86.07,87.648c-34.358,22.661-71.712,35.693-112.065,39.115
			l-21.129,37.688c42.257,0,82.18-9.038,119.769-27.121c37.59-18.076,70.668-43.488,99.216-76.225
			c13.322-15.421,23.695-29.219,31.121-41.401c3.806-6.476,5.708-13.046,5.708-19.702
			C511.626,249.157,509.724,242.59,505.916,236.114z" />
                </g>
            </g>
        </symbol>
        <symbol id="missing" viewBox="0 0 52 52">
            <title>Icon Missing</title>
            <path d="M44.373,7.603c-10.137-10.137-26.633-10.137-36.77,0c-10.138,10.138-10.138,26.632,0,36.77
	c5.068,5.068,11.727,7.604,18.385,7.604s13.316-2.535,18.385-7.604C54.51,34.235,54.51,17.74,44.373,7.603z M9.017,9.017
	c4.679-4.679,10.825-7.019,16.971-7.019c5.832,0,11.649,2.134,16.228,6.347l-33.87,33.87C-0.307,32.812-0.101,18.135,9.017,9.017z
	 M42.959,42.958c-9.119,9.119-23.795,9.325-33.199,0.671L43.63,9.76C52.284,19.163,52.078,33.84,42.959,42.958z" />
        </symbol>
        <symbol id="svg-logo" viewBox="0 0 159 80">
            <title>Euro Jet Logo</title>
            <path
                d="M18.594196 54.28156H7.941856l.80784-2.117275h9.90772l.913068-2.379028H9.656762l.788232-2.064453h10.5123L22 45H7.58015L3 57h14.55349l1.040706-2.71844zm4.002644 1.846423C23.439866 56.854273 24.3958 57 28.910956 57c1.0078 0 2.906105-.021488 3.475836-.036725 1.963736-.05626 3.213712-.40827 4.368733-1.188865 1.088393-.753638 1.783002-1.7581 2.49716-3.6252l.35309-.90874L42 45h-3.94303l-2.095397 5.45753-.396577 1.035324c-.5813 1.493993-.988252 2.046036-1.726348 2.351945-.578907.231677-1.55519.303564-4.10661.303564-1.70959 0-2.56658-.08556-2.940017-.33404-.58529-.36334-.554968-.790752.103733-2.50236l.436076-1.138466L29.3199 45h-3.947817l-2.459657 6.401433c-.331944.858342-.441262 1.142373-.55018 1.484225-.544996 1.721374-.48156 2.616442.234594 3.242325zM48.470525 64L0 64.045642C68.334823 66.552216 76.60187 70.121832 27.584548 80c17.701615-2.207412 32.855258-3.95384 46.01295-6.10648 1.262335-.231945 2.592567-.466794 4.037302-.697908 4.21247-.740645 8.16299-1.4788 11.823843-2.200773C103.91041 67.731852 105.732397 64 48.470525 64zm-.32099-16h6.128776c1.156133 0 1.436336.04945 1.6331.329287.156013.24572.115264.552773-.196764 1.362765C55.345956 50.653462 54.75722 51 53.495138 51H47l1.149534-3zm-3.19121 9l1.15249-3.023948h6.079247c1.074695 0 1.37585.040603 1.613646.236917.26667.234946.25504.615354-.010025 1.29733L53.221047 57h4.032513l.721008-1.88903c.348874-.921653.42306-1.347.29153-1.784174-.16361-.587366-.64241-.768306-2.099665-.836898l-.632386-.040603c1.66698-.214053 2.1534-.323642 2.76774-.649256.94477-.484085 1.65495-1.415197 2.21716-2.871785.711385-1.85789.635996-2.93407-.241003-3.453238C59.663202 45.125357 58.772168 45 56.840124 45h-11.2442L41 57h3.958326zM142 45h-15.85041L125 47.975855h5.900065L127.38645 57h4.033153l3.5181-9.024145h5.902103L142 45zm-36 12h14.55503l1.04119-2.71844h-10.656876l.802207-2.117275h9.91872l.91149-2.379028h-9.912313l.784194-2.064453h10.519574L125 45h-14.42053L106 57zm-2.962814-12l-2.641076 6.860665c-.617238 1.57417-.714507 1.693542-1.2681 1.987085-.483143.23131-1.158423.317025-2.330055.317025-.938266 0-1.608742-.057926-1.996618-.1773-.652863-.181213-.694893-.499804-.20935-1.75499l.147706-.37182H90.97542l-.278197.708024-.314224.778864c-.625645 1.626614-.49195 2.527984.453922 3.125244.743728.441488 1.50587.527202 4.402326.527202 1.968198 0 2.640675-.015264 3.16865-.071624 1.737234-.15773 2.94169-.63679 3.918783-1.56869.947474-.873972 1.162827-1.280625 2.30684-4.209784L107 45h-3.962814zm41.778158-7c12.082876.327195 8.857808 9.456266-4.815344 19 28.948533-15.186232 20.018177-18.984612 4.815344-19zm-9.680536-38L112 19h39.73269L159 0h-23.865192zM105 24.9966V25h44.566808L152 19l-47 5.9966zM144.56846 38L147 32l-58 5.93648L144.56846 38zM66.63568 51.41961c.735922-2.116943 1.185034-2.799827 2.057402-3.120524C69.351435 48.067856 70.168112 48 72.64877 48c2.990633 0 3.649384.067856 4.078606.402816.425245.33107.371542 1.002716-.29238 2.91998-.836964 2.407384-1.282098 3.048345-2.267042 3.408804-.660342.21913-1.479405.2684-4.458104.2684-4.096906 0-4.249262-.17418-3.07417-3.58039zm-4.669568 5.975068c.92387.513708 2.004266.605322 6.582572.605322 2.154757 0 3.75463-.041833 4.789958-.118387 2.224772-.168587 3.932885-1.125306 4.962178-2.76432.585467-.913213.896106-1.60471 1.59625-3.526097.632546-1.7779.92025-2.65639 1.01642-3.251255.340012-1.92557-.304202-2.845056-2.25294-3.165915C77.81434 45.040578 76.689682 45 72.786574 45c-2.1451 0-2.97763.02259-4.218576.151017-2.071866.193686-3.622648.963412-4.587158 2.274038-.71785.95421-.99831 1.567898-1.890794 4.02851-.564543 1.566644-.88001 2.538004-.990263 3.091035-.274425 1.429013.018107 2.371927.86633 2.850078zM97 31h50.535385L150 25l-53 6z"
                fill-rule="evenodd"></path>
        </symbol>
        <symbol id="svg-doc" viewBox="0 0 60 60">
            <style type="text/css">
                .pol-1 {
                    fill-rule: evenodd;
                    clip-rule: evenodd;
                    fill: none;
                    stroke: #1A1A18;
                    stroke-width: 2;
                    stroke-linecap: round;
                    stroke-linejoin: round;
                    stroke-miterlimit: 22.9256;
                }

                .pl-1 {
                    fill-rule: evenodd;
                    clip-rule: evenodd;
                    fill: none;
                    stroke: #1A1A18;
                    stroke-width: 2;
                    stroke-miterlimit: 22.9256;
                }

                .pth-1 {
                    fill-rule: evenodd;
                    clip-rule: evenodd;
                    fill: #1A1A18;
                }
            </style>
            <g>
                <polygon id="XMLID_7_" class="pol-1"
                    points="48.13104,6 23.95604,6 11.86896,18.0875 11.86896,54 48.13104,54 	" />
                <polyline id="XMLID_6_" class="pl-1" points="23.95604,6 23.95604,18.35083 11.86896,18.35083 	" />
                <path id="XMLID_5_" class="pth-1" d="M30.04229,16.0725h11.73917c0.79583,0,1.44542,0.64958,1.44542,1.44458v0.00083
              c0,0.795-0.64958,1.44458-1.44542,1.44458H30.04229c-0.79375,0-1.44333-0.64958-1.44333-1.44458v-0.00083
                C28.59896,16.72208,29.24854,16.0725,30.04229,16.0725z" />
                <path id="XMLID_4_" class="pth-1" d="M19.18229,22.37958h22.60042c0.79459,0,1.44417,0.64958,1.44417,1.44458V23.825
                c0,0.795-0.64958,1.44458-1.44417,1.44458H19.18229c-0.795,0-1.44458-0.64958-1.44458-1.44458v-0.00083
                C17.73771,23.02917,18.38729,22.37958,19.18229,22.37958z" />
                <path id="XMLID_3_" class="pth-1" d="M19.18229,29.03625h22.60042c0.79459,0,1.44417,0.64958,1.44417,1.44458v0.00125
              c0,0.79458-0.64958,1.44417-1.44417,1.44417H19.18229c-0.795,0-1.44458-0.64958-1.44458-1.44417v-0.00125
              C17.73771,29.68583,18.38729,29.03625,19.18229,29.03625z" />
                <path id="XMLID_2_" class="pth-1" d="M19.18229,35.60542h22.60042c0.79459,0,1.44417,0.64959,1.44417,1.44458v0.00125
              c0,0.795-0.64958,1.44458-1.44417,1.44458H19.18229c-0.795,0-1.44458-0.64959-1.44458-1.44458V37.05
                C17.73771,36.255,18.38729,35.60542,19.18229,35.60542z" />
                <path id="XMLID_1_" class="pth-1" d="M19.18229,41.9125h22.60042c0.79459,0,1.44417,0.64959,1.44417,1.44458v0.00125
                c0,0.795-0.64958,1.44458-1.44417,1.44458H19.18229c-0.795,0-1.44458-0.64959-1.44458-1.44458v-0.00125
                C17.73771,42.56208,18.38729,41.9125,19.18229,41.9125z" />
            </g>
        </symbol>
        <symbol id="svg-doc-aircraft" viewBox="0 0 60 60">
            <g>
                <polygon id="XMLID_3_" class="pol-1"
                    points="48.13104,6 23.95604,6 11.86896,18.08708 11.86896,54 48.13104,54 	" />
                <polyline id="XMLID_2_" class="pl-1" points="23.95604,6 23.95604,18.35042 11.86896,18.35042 	" />
                <polygon id="XMLID_1_" class="pth-1" points="29.99979,44.04417 33.56562,45.41459 33.56562,44.19792 31.04396,42.15458 
                31.04396,40.285 31.94062,39.28458 31.94062,35.65958 39.79104,37.76208 39.79104,35.45875 31.95687,30.93625 31.95687,25.93667 
                29.99979,23.41417 28.04396,25.93667 28.04396,30.93625 20.20979,35.45875 20.20979,37.76208 28.05938,35.65958 28.05938,39.28458 
                28.95687,40.285 28.95687,42.15458 26.43521,44.19792 26.43521,45.41459 	" />
            </g>
        </symbol>

        <symbol id="svg-plane" viewBox="0 0 72 72">
            <style type="text/css">
                .plane {
                    fill-rule: evenodd;
                    clip-rule: evenodd;
                    fill: none;
                    stroke: #000000;
                    stroke-width: 2;
                    stroke-miterlimit: 22.9256;
                }
            </style>
            <polygon class="plane" points="6.57581,36 2.38793,46.8943 6.10873,46.8943 12.35224,39.18836 18.06457,39.18836 21.12097,41.93088 
              32.19802,41.93088 25.77051,65.91624 32.80789,65.91624 46.62871,41.97834 61.90654,41.97834 69.61207,36 61.90654,30.02208 
              46.62871,30.02208 32.80789,6.08375 25.77051,6.08375 32.19802,30.07037 21.12097,30.07037 18.06457,32.81164 12.35224,32.81164 
              6.10873,25.10611 2.38793,25.10611 " />
        </symbol>
        <symbol id="svg-upcoming" viewBox="0 0 36 36">
            <title>Ipcoming flights</title>
            <path
                d="M18,32.753l5.462,2.101l0,-1.866l-3.863,-3.131l0,-2.865l1.375,-1.531l0,-5.556l12.026,3.224l0,-3.529l-12.002,-6.93l0,-7.661l-2.998,-3.863l-2.998,3.863l0,7.661l-12.002,6.93l0,3.529l12.027,-3.224l0,5.556l1.374,1.531l0,2.865l-3.864,3.131l0,1.866l5.463,-2.101Z"
                style="fill:#1a1a18;" />
        </symbol>
        <symbol id="svg-user" viewBox="0 0 36 36">
            <title>User</title>
            <path
                d="M13.936,19.801c-2.736,-1.087 -4.937,-3.357 -5.43,-6.881c-0.763,-5.441 3.732,-10.963 9.618,-10.926c6.342,0.121 11.489,7.579 8.517,13.743c-0.936,1.94 -2.626,3.309 -4.614,4.081c5.458,1.759 9.775,6.89 9.969,12.997l0.023,1.192l-28.038,0l0.023,-1.192c0.187,-5.913 4.245,-11.232 9.932,-13.014Zm3.91,1.368c-5.831,0.11 -11.14,4.769 -11.786,10.785l23.885,0.053c-0.049,-0.511 -0.132,-1.022 -0.247,-1.525c-1.212,-5.29 -6.14,-9.349 -11.852,-9.313Zm0.056,-17.175c-5.765,0.11 -10.012,8.317 -5.201,13.015c4.382,4.278 14.071,0.517 12.768,-6.772c-0.605,-3.384 -3.705,-6.128 -7.273,-6.241c-0.098,-0.002 -0.196,-0.003 -0.294,-0.002Z" />
        </symbol>
        <symbol id="svg-search" viewBox="0 0 129 129"
            style="fill-rule:evenodd;clip-rule:evenodd;stroke-linejoin:round;stroke-miterlimit:1.41421;">
            <path
                d="M51.6,96.7c11,0 21,-3.9 28.8,-10.5l35,35c0.8,0.8 1.8,1.2 2.9,1.2c1.1,0 2.1,-0.4 2.9,-1.2c1.6,-1.6 1.6,-4.2 0,-5.8l-35,-35c6.5,-7.8 10.5,-17.9 10.5,-28.8c0,-24.9 -20.2,-45.1 -45.1,-45.1c-24.8,0 -45.1,20.3 -45.1,45.1c0,24.9 20.3,45.1 45.1,45.1Zm0,-82c20.4,0 36.9,16.6 36.9,36.9c0,20.4 -16.5,36.9 -36.9,36.9c-20.4,0 -36.9,-16.6 -36.9,-36.9c0,-20.3 16.6,-36.9 36.9,-36.9Z"
                style="fill-rule:nonzero;" />
        </symbol>
        <symbol id="svg-plus" viewBox="0 0 28 28">
            <g>
                <circle id="XMLID_1_" cx="14" cy="14" r="12.5" />
                <path id="XMLID_4_"
                    d="M14.907,6.463l0,6.658l6.404,0l0,1.701l-6.404,0l0,6.715l-1.813,0l0,-6.715l-6.405,0l0,-1.701l6.405,0l0,-6.658l1.813,0Z"
                    style="fill:#fff;fill-rule:nonzero;" />
            </g>
        </symbol>
        <symbol id="svg_plus" viewBox="0 0 28 28">
            <circle cx="14" cy="14" r="12.5" />
            <path d="M14.907 6.463v6.658h6.404v1.701h-6.404v6.715h-1.813v-6.715H6.689v-1.701h6.405V6.463h1.813z"
                style="fill:#fff;fill-rule:nonzero" />
        </symbol>
    </defs>
</svg>