<?xml version="1.0" encoding="UTF-8" standalone="no"?><!DOCTYPE svg PUBLIC "-//W3C//DTD SVG 1.1//EN" "http://www.w3.org/Graphics/SVG/1.1/DTD/svg11.dtd"><svg width="100%" height="100%" viewBox="0 0 168 168" version="1.1" xmlns="http://www.w3.org/2000/svg" xmlns:xlink="http://www.w3.org/1999/xlink" xml:space="preserve" xmlns:serif="http://www.serif.com/" style="fill-rule:evenodd;clip-rule:evenodd;stroke-linejoin:round;stroke-miterlimit:2;"><circle cx="84" cy="84" r="84"/><path d="M25.116,97.338l-9.949,0l0.755,-1.977l9.253,-0l0.853,-2.222l-9.259,0l0.736,-1.928l9.818,-0l0.974,-2.541l-13.467,-0l-4.278,11.207l13.592,0l0.972,-2.539Zm3.739,1.725c0.787,0.678 1.68,0.814 5.897,0.814c0.941,0 2.714,-0.02 3.246,-0.034c1.834,-0.052 3.002,-0.381 4.08,-1.11c1.017,-0.704 1.666,-1.642 2.333,-3.386l0.329,-0.849l2.236,-5.828l-3.682,-0l-1.957,5.097l-0.371,0.967c-0.543,1.395 -0.923,1.911 -1.612,2.197c-0.541,0.216 -1.452,0.283 -3.835,0.283c-1.597,0 -2.397,-0.08 -2.746,-0.312c-0.547,-0.339 -0.519,-0.738 0.097,-2.337l0.407,-1.063l1.857,-4.832l-3.687,-0l-2.298,5.979c-0.31,0.801 -0.412,1.066 -0.514,1.386c-0.509,1.607 -0.449,2.443 0.22,3.028Zm24.165,7.352l-45.27,0.043c63.822,2.341 71.543,5.675 25.763,14.9c16.533,-2.061 30.685,-3.692 42.974,-5.703c1.179,-0.216 2.422,-0.436 3.771,-0.652c3.934,-0.691 7.624,-1.381 11.043,-2.055c13.497,-3.047 15.199,-6.533 -38.281,-6.533Zm-0.3,-14.943l5.724,-0c1.08,-0 1.341,0.046 1.525,0.307c0.146,0.23 0.108,0.517 -0.184,1.273c-0.344,0.898 -0.894,1.222 -2.073,1.222l-6.066,-0l1.074,-2.802Zm-2.981,8.405l1.077,-2.824l5.678,0c1.003,0 1.285,0.038 1.507,0.221c0.249,0.22 0.238,0.575 -0.01,1.212l-0.535,1.391l3.767,0l0.673,-1.764c0.326,-0.861 0.395,-1.258 0.272,-1.666c-0.152,-0.549 -0.6,-0.718 -1.961,-0.782l-0.59,-0.038c1.557,-0.2 2.011,-0.302 2.585,-0.606c0.882,-0.452 1.545,-1.322 2.07,-2.682c0.665,-1.736 0.594,-2.741 -0.225,-3.226c-0.574,-0.326 -1.406,-0.443 -3.21,-0.443l-10.502,-0l-4.293,11.207l3.697,0Zm90.634,-11.207l-14.804,-0l-1.074,2.779l5.511,0l-3.282,8.428l3.767,0l3.286,-8.428l5.512,0l1.084,-2.779Zm-33.623,11.207l13.594,0l0.972,-2.539l-9.953,0l0.749,-1.977l9.264,-0l0.851,-2.222l-9.257,0l0.732,-1.928l9.825,-0l0.968,-2.541l-13.468,-0l-4.277,11.207Zm-2.767,-11.207l-2.467,6.407c-0.576,1.471 -0.667,1.582 -1.184,1.856c-0.451,0.216 -1.082,0.296 -2.176,0.296c-0.877,0 -1.503,-0.054 -1.865,-0.165c-0.61,-0.169 -0.649,-0.467 -0.196,-1.639l0.138,-0.348l-3.515,0l-0.26,0.662l-0.294,0.727c-0.584,1.519 -0.459,2.361 0.424,2.919c0.695,0.412 1.407,0.492 4.112,0.492c1.838,0 2.466,-0.014 2.959,-0.067c1.623,-0.147 2.748,-0.594 3.66,-1.465c0.885,-0.816 1.086,-1.196 2.155,-3.931l2.21,-5.744l-3.701,-0Zm39.019,-6.538c11.285,0.306 8.273,8.832 -4.497,17.745c27.037,-14.183 18.696,-17.731 4.497,-17.745Zm-9.041,-35.49l-21.607,17.745l37.109,-0l6.787,-17.745l-22.289,-0Zm-28.145,23.345l0,0.004l41.624,-0l2.272,-5.604l-43.896,5.6Zm36.955,12.145l2.271,-5.604l-54.169,5.545l51.898,0.059Zm-72.786,12.533c0.688,-1.977 1.107,-2.614 1.922,-2.914c0.615,-0.216 1.377,-0.279 3.694,-0.279c2.793,-0 3.409,0.063 3.809,0.376c0.398,0.309 0.347,0.936 -0.273,2.727c-0.781,2.248 -1.197,2.847 -2.117,3.184c-0.617,0.204 -1.382,0.25 -4.164,0.25c-3.826,0 -3.968,-0.162 -2.871,-3.344Zm-4.361,5.581c0.863,0.48 1.872,0.565 6.148,0.565c2.012,0 3.507,-0.039 4.474,-0.11c2.077,-0.158 3.673,-1.051 4.634,-2.582c0.547,-0.853 0.837,-1.499 1.491,-3.293c0.591,-1.661 0.859,-2.481 0.949,-3.037c0.318,-1.798 -0.284,-2.657 -2.104,-2.957c-0.79,-0.124 -1.841,-0.162 -5.486,-0.162c-2.004,-0 -2.781,0.021 -3.94,0.141c-1.935,0.181 -3.383,0.9 -4.284,2.124c-0.671,0.891 -0.933,1.464 -1.766,3.762c-0.528,1.463 -0.822,2.371 -0.925,2.887c-0.256,1.335 0.017,2.215 0.809,2.662l0,-0Zm32.72,-24.652l47.198,0l2.302,-5.603l-49.5,5.603Z" style="fill:#fff;"/></svg>